# xmcd
#
# Track frame offsets:
#	150
#	33940
#	47637
#	62525
#	81525
#	86140
#	107007
#	120510
#	131622
#	149427
#	167902
#	186822
#	206185
#
# Disc length: 3046 seconds
#
# Revision: 1
# Processed by: cddbd v1.5.1PL0 Copyright (c) Steve Scherf et al.
# Submitted via: CDex 1.50Beta5
#
DISCID=bb0be40d
DTITLE=うたいびと はね - 音遊記
DYEAR=2002
DGENRE=
TTITLE0=日常生活
TTITLE1=未タイトル
TTITLE2=ねェ ねェ
TTITLE3=幸せのうた
TTITLE4=LOVE
TTITLE5=流れ星
TTITLE6=ゴアンチョ
TTITLE7=ハレルカ
TTITLE8=手紙
TTITLE9=卒業
TTITLE10=ポジティブ人生
TTITLE11=別れの時
TTITLE12=白紙の日々へ
EXTD=
EXTT0=
EXTT1=
EXTT2=
EXTT3=
EXTT4=
EXTT5=
EXTT6=
EXTT7=
EXTT8=
EXTT9=
EXTT10=
EXTT11=
EXTT12=
PLAYORDER=
